<?xml version="1.0" encoding="UTF-8" standalone="no"?>
<svg
   height="128"
   width="128"
   version="1.1"
   id="svg7"
   sodipodi:docname="preattack.svg"
   inkscape:version="1.3.2 (091e20e, 2023-11-25)"
   xmlns:inkscape="http://www.inkscape.org/namespaces/inkscape"
   xmlns:sodipodi="http://sodipodi.sourceforge.net/DTD/sodipodi-0.dtd"
   xmlns="http://www.w3.org/2000/svg"
   xmlns:svg="http://www.w3.org/2000/svg">
  <defs
     id="defs7" />
  <sodipodi:namedview
     id="namedview7"
     pagecolor="#ffffff"
     bordercolor="#000000"
     borderopacity="0.25"
     inkscape:showpageshadow="2"
     inkscape:pageopacity="0.0"
     inkscape:pagecheckerboard="0"
     inkscape:deskcolor="#d1d1d1"
     inkscape:zoom="1.84375"
     inkscape:cx="64"
     inkscape:cy="63.728814"
     inkscape:window-width="1472"
     inkscape:window-height="830"
     inkscape:window-x="0"
     inkscape:window-y="38"
     inkscape:window-maximized="0"
     inkscape:current-layer="svg7" />
  <rect
     x="2"
     y="2"
     width="124"
     height="124"
     rx="14"
     fill="#363d52"
     stroke="#212532"
     stroke-width="4"
     id="rect1" />
  <g
     transform="scale(.101) translate(122 122)"
     id="g7">
    <g
       fill="#fff"
       id="g4">
      <path
         d="M105 673v33q407 354 814 0v-33z"
         id="path1" />
      <path
         fill="#478cbf"
         d="m105 673 152 14q12 1 15 14l4 67 132 10 8-61q2-11 15-15h162q13 4 15 15l8 61 132-10 4-67q3-13 15-14l152-14V427q30-39 56-81-35-59-83-108-43 20-82 47-40-37-88-64 7-51 8-102-59-28-123-42-26 43-46 89-49-7-98 0-20-46-46-89-64 14-123 42 1 51 8 102-48 27-88 64-39-27-82-47-48 49-83 108 26 42 56 81zm0 33v39c0 276 813 276 813 0v-39l-134 12-5 69q-2 10-14 13l-162 11q-12 0-16-11l-10-65H447l-10 65q-4 11-16 11l-162-11q-12-3-14-13l-5-69z"
         id="path2" />
      <path
         d="M483 600c3 34 55 34 58 0v-86c-3-34-55-34-58 0z"
         id="path3" />
      <circle
         cx="725"
         cy="526"
         r="90"
         id="circle3" />
      <circle
         cx="299"
         cy="526"
         r="90"
         id="circle4" />
    </g>
    <g
       fill="#414042"
       id="g6">
      <circle
         cx="307"
         cy="532"
         r="60"
         id="circle5" />
      <circle
         cx="717"
         cy="532"
         r="60"
         id="circle6" />
    </g>
  </g>
  <path
     style="fill:#ff0000;stroke:#ff0000;stroke-width:0.204991"
     d="M 12.615095,123.16044 C 8.305585,121.62236 5.6426936,118.80472 4.6305343,114.71186 4.2035871,112.98542 4.0726124,97.748361 4.18297,62.644068 4.3314841,15.402334 4.3876546,12.925705 5.3515787,11.118644 6.7741848,8.4516956 8.3333489,6.8595586 10.847458,5.5065394 13.01592,4.3395368 13.040359,4.3389031 62.372881,4.1703353 c 34.169123,-0.1167549 50.199829,0.013159 52.098529,0.422211 3.28793,0.7083422 6.31427,3.0474611 7.98501,6.1717807 l 1.2046,2.252622 V 64 114.98305 l -1.2046,2.25262 c -1.56347,2.92372 -4.56558,5.36539 -7.50782,6.10626 -3.73086,0.93944 -99.669527,0.76929 -102.333505,-0.18149 z m 60.605244,-14.9618 c 8.438725,-0.93046 14.856781,-2.68766 20.881356,-5.71711 4.656521,-2.34152 7.544365,-4.909755 9.508795,-8.456418 l 1.60985,-2.906468 0.17554,-17.839707 0.17554,-17.83971 2.67192,-3.804674 c 1.46955,-2.09257 2.67191,-4.023855 2.67191,-4.291745 0,-0.738714 -3.93128,-6.354848 -6.34847,-9.069271 l -2.14114,-2.40443 -3.755197,2.133243 c -2.06535,1.173284 -3.946695,2.217418 -4.180756,2.320297 -0.234067,0.10288 -1.698473,-0.7801 -3.254238,-1.962179 -1.555769,-1.182078 -3.49204,-2.570559 -4.302828,-3.085512 -1.29926,-0.825194 -1.446232,-1.203709 -1.238747,-3.190362 0.129475,-1.239747 0.351403,-3.51155 0.493163,-5.048451 l 0.257752,-2.794366 -2.815615,-1.213154 c -4.103799,-1.768189 -9.753133,-3.291103 -10.2745,-2.769738 -0.248038,0.24804 -1.381972,2.220229 -2.519848,4.382643 l -2.068871,3.931661 h -4.792564 -4.792569 l -2.051141,-4.076535 c -1.128126,-2.242095 -2.281753,-4.219063 -2.563615,-4.393264 -0.569631,-0.352051 -8.666945,2.075337 -11.111889,3.331088 l -1.562773,0.802658 0.268728,5.137561 c 0.265543,5.07668 0.251927,5.148195 -1.149092,6.034902 -0.779801,0.493537 -2.720477,1.86521 -4.312615,3.048164 -2.64163,1.962724 -2.997379,2.085113 -4.067796,1.399452 -0.645151,-0.413255 -2.462781,-1.457827 -4.039178,-2.321271 -2.357882,-1.291489 -3.011682,-1.44914 -3.686654,-0.888963 -0.985222,0.817662 -7.28893,9.124131 -7.661978,10.096276 -0.144497,0.376554 0.920146,2.338789 2.365874,4.360524 l 2.628595,3.67588 0.271187,18.169492 0.271186,18.169491 1.609842,2.906468 c 1.964433,3.546663 4.852279,6.114898 9.508802,8.456418 10.271579,5.16505 24.96019,7.30066 39.322034,5.71711 z"
     id="path7" />
</svg>
